<svg width="32" height="32" viewBox="0 0 32 32" fill="none" xmlns="http://www.w3.org/2000/svg">
<path fill-rule="evenodd" clip-rule="evenodd" d="M26.5 4H11.5C11.1022 4 10.7206 4.15804 10.4393 4.43934C10.158 4.72064 10 5.10218 10 5.5V10H5.5C5.10218 10 4.72064 10.158 4.43934 10.4393C4.15804 10.7206 4 11.1022 4 11.5V26.5C4 26.8978 4.15804 27.2794 4.43934 27.5607C4.72064 27.842 5.10218 28 5.5 28H20.5C20.8978 28 21.2794 27.842 21.5607 27.5607C21.842 27.2794 22 26.8978 22 26.5V22H26.5C26.8978 22 27.2794 21.842 27.5607 21.5607C27.842 21.2794 28 20.8978 28 20.5V5.5C28 5.10218 27.842 4.72064 27.5607 4.43934C27.2794 4.15804 26.8978 4 26.5 4ZM22 20.5H26.5V5.5H11.5V10H20.5C20.8978 10 21.2794 10.158 21.5607 10.4393C21.842 10.7206 22 11.1022 22 11.5V20.5ZM5.5 26.5H20.5V11.5H5.5V26.5Z" fill="black"/>
</svg>
